<svg xmlns="http://www.w3.org/2000/svg" version="1.1" xmlns:xlink="http://www.w3.org/1999/xlink" xmlns:svgjs="http://svgjs.com/svgjs" width="512" height="512" x="0" y="0" viewBox="0 0 512 512" style="enable-background:new 0 0 512 512" xml:space="preserve" class=""><g><g xmlns="http://www.w3.org/2000/svg" id="SUCCESS"><path d="m256 0c-141.38 0-256 114.58-256 256s114.62 256 256 256 256-114.65 256-256-114.62-256-256-256z" fill="#2ad352" data-original="#2ad352" class=""></path><path d="m0 256a254.87 254.87 0 0 0 30.49 121.23 278.76 278.76 0 0 0 78.73 11.29c153.9 0 278.66-124.76 278.66-278.66a278.7 278.7 0 0 0 -11.64-79.94 254.86 254.86 0 0 0 -120.24-29.92c-141.38 0-256 114.58-256 256z" fill="#74da7f" data-original="#74da7f" class=""></path><path d="m402 213.58-153.87 161.59a45.16 45.16 0 0 1 -32.48 14h-.2a45.11 45.11 0 0 1 -32.4-13.71l-81.65-84.1a45.14 45.14 0 1 1 64.78-62.87l48.95 50.42 121.49-127.58a45.14 45.14 0 1 1 65.38 62.25z" fill="#ffffff" data-original="#ffffff" class=""></path></g></g></svg>