<svg xmlns="http://www.w3.org/2000/svg" version="1.1" xmlns:xlink="http://www.w3.org/1999/xlink" xmlns:svgjs="http://svgjs.com/svgjs" width="512" height="512" x="0" y="0" viewBox="0 0 32 32" style="enable-background:new 0 0 512 512" xml:space="preserve" class=""><g><g xmlns="http://www.w3.org/2000/svg"><path d="m2.837 20.977q-.912-5.931-1.825-11.862a.99.99 0 0 1 1.572-.942l5.686 4.264a1.358 1.358 0 0 0 1.945-.333l4.734-7.104a1.263 1.263 0 0 1 2.1 0l4.734 7.1a1.358 1.358 0 0 0 1.945.333l5.686-4.264a.99.99 0 0 1 1.572.942q-.913 5.931-1.825 11.862z" fill="#ffffff" data-original="#000000" class=""></path><path d="m2.837 23.171h26.326a0 0 0 0 1 0 0v3.015a1.373 1.373 0 0 1 -1.373 1.373h-23.58a1.373 1.373 0 0 1 -1.373-1.373v-3.015a0 0 0 0 1 0 0z" fill="#ffffff" data-original="#000000" class=""></path></g></g></svg>